<svg xmlns="http://www.w3.org/2000/svg" width="1920" height="1260" viewBox="0 0 1920 1260">
  <defs>
    <style>
      .cls-1 {
        fill-rule: evenodd;
      }
    </style>
  </defs>
  <path id="Color_Fill_1" data-name="Color Fill 1" class="cls-1" d="M0,0H1920V800c-60.22.136-115.96-3.873-172-4v-3q7.005-16.5,14-33c11.16-54.816-40.56-108.079-96-96q-23.505,9-47,18c-2.56-1.632-2.42-1.232-4-4-5.12-13.867,4.88-42.787-4-53-11.57-17.1-102.92-16.99-136-17-67.37-.02-141.5-2-212-2-37.02,0-75.89-2.225-109,4-41.15,7.735-94.84-8.664-118,16-0.33,39.05-2.83,79.193,4,114q6,32,12,64H976c-6.809-1.354-12.857-6.5-18-8-29.157-8.531-72.085,5.524-95,6-35.075.728-76.9,0.417-103-6-17.623-4.334-46.3.823-58,4H508l-46-2c-30.382,5.675-81.717,14.785-118,8-9.552-1.786-21.7-6.058-28-8H289c-29.057,0-59.805,1.866-86,2-67.307.346-136.424-.02-203,0V0ZM1666,692c13.85-.26,30.24-1.345,40,3,25.1,11.173,40.69,53.78,21,83-17.08,25.349-95.49,69.715-141,61-0.33-1-.67-2-1-3-3.43-10.362,10.57-31.506,14-42l6-30c4.44-7.026,13.9-8.526,18-17C1640.3,711.242,1630.09,711.958,1666,692Z"/>
</svg>
